Passive_07_3plates.mot
version=1
nRows=62
nColumns=19
inDegrees=yes
endheader
time	ground_force_vx	ground_force_vy	ground_force_vz	ground_force_px	ground_force_py	ground_force_pz	1_ground_force_vx	1_ground_force_vy	1_ground_force_vz	1_ground_force_px	1_ground_force_py	1_ground_force_pz	ground_torque_x	ground_torque_y	ground_torque_z	1_ground_torque_x	1_ground_torque_y	1_ground_torque_z	
0	0	0	0	0	0	0	0	0	0	0	0	0	0	0	0	0	0	0
0.00041683	-0.038836	-0.55248	-0.029071	-0.36854	0	0.41724	142.94	701.19	-19.43	-1.1052	0	0.28967	0	-0.053648	0	0	-2.905	0
0.00083366	-0.016161	-0.20156	-0.0095581	-0.37471	0	0.41993	143.57	701.36	-19.417	-1.1051	0	0.28963	0	0.011831	0	0	-2.9005	0
0.0012505	0.0056613	-0.11039	-0.074205	-0.34526	0	0.39058	144.28	702.93	-19.403	-1.1051	0	0.28963	0	-0.040378	0	0	-2.8864	0
0.0016673	0.028894	0.15358	-0.052483	-0.35119	0	0.40818	144.81	704.06	-19.323	-1.1051	0	0.28975	0	-0.018528	0	0	-2.8502	0
0.0020841	-0.34422	0.767	-0.13817	-0.39982	0	0.35783	145.53	705.64	-19.305	-1.1052	0	0.28956	0	-0.018383	0	0	-2.8719	0
0.002501	-0.56408	0.24132	-0.22252	-0.40037	0	0.352	146.32	706.24	-19.34	-1.105	0	0.28957	0	-0.079528	0	0	-2.8273	0
0.0029178	-0.56249	2.0838	-0.0019991	-0.44725	0	0.31005	147	707.82	-19.39	-1.105	0	0.28958	0	-0.10977	0	0	-2.8264	0
0.0033346	-5.3359	9.5053	1.0526	-0.54492	0	0.2422	147.7	707.98	-19.489	-1.1049	0	0.28961	0	-0.7285	0	0	-2.8084	0
0.0037515	-14.574	20.766	2.6764	-0.56982	0	0.22437	148.43	708.93	-19.324	-1.1049	0	0.28972	0	-1.9358	0	0	-2.7812	0
0.0041683	-21.67	28.068	4.9548	-0.57446	0	0.21645	149.07	710.6	-19.351	-1.1048	0	0.2896	0	-2.9567	0	0	-2.7806	0
0.0045851	-22.487	34.142	6.4489	-0.56877	0	0.22128	149.79	711.11	-19.404	-1.1049	0	0.28955	0	-3.0392	0	0	-2.7407	0
0.005002	-20.238	35.61	6.8607	-0.56091	0	0.22109	150.25	712.43	-19.169	-1.1048	0	0.28953	0	-2.7074	0	0	-2.7312	0
0.0054188	-20.551	30.347	5.7695	-0.56292	0	0.21656	150.98	713.21	-19.178	-1.1048	0	0.28952	0	-2.7603	0	0	-2.7175	0
0.0058356	-21.078	26.84	4.4028	-0.56517	0	0.2304	151.86	714.6	-19.473	-1.1046	0	0.28958	0	-2.8256	0	0	-2.734	0
0.0062524	-17.97	22.314	3.3408	-0.56664	0	0.22412	152.34	715.65	-19.28	-1.1048	0	0.28949	0	-2.3591	0	0	-2.703	0
0.0066693	-13.897	19.185	2.7772	-0.56423	0	0.22163	153.05	716.43	-19.006	-1.1047	0	0.28948	0	-1.8707	0	0	-2.6849	0
0.0070861	-13.861	21.487	4.5301	-0.55811	0	0.22878	153.81	718	-19.101	-1.1048	0	0.28952	0	-2.0283	0	0	-2.6752	0
0.0075029	-17.234	24.26	5.9178	-0.56506	0	0.2231	154.91	717.89	-19.205	-1.1047	0	0.28946	0	-2.5129	0	0	-2.6575	0
0.0079198	-20.331	29.208	6.0763	-0.56538	0	0.21832	155.53	719.29	-19.059	-1.1047	0	0.28952	0	-2.8131	0	0	-2.617	0
0.0083366	-22.794	34.145	6.4729	-0.56989	0	0.21736	156.14	719.72	-19.178	-1.1046	0	0.28942	0	-3.0872	0	0	-2.5861	0
0.0087534	-27.787	40.082	7.225	-0.57674	0	0.21086	156.51	720.51	-19.116	-1.1045	0	0.28945	0	-3.802	0	0	-2.5943	0
0.0091703	-35.153	50.082	8.2235	-0.58233	0	0.20975	157.17	721.11	-19.427	-1.1045	0	0.28953	0	-4.8433	0	0	-2.6773	0
0.0095871	-41.71	59.818	9.6305	-0.58011	0	0.20862	158.14	722.51	-19.07	-1.1044	0	0.28936	0	-5.392	0	0	-2.5757	0
0.010004	-43.52	65.449	10.3	-0.57989	0	0.20584	158.45	723.39	-19.076	-1.1043	0	0.28932	0	-5.5352	0	0	-2.5136	0
0.010421	-44.059	71.077	10.861	-0.57575	0	0.20755	159.41	724.78	-18.977	-1.1043	0	0.2892	0	-5.7698	0	0	-2.5087	0
0.010838	-46.123	73.132	11.761	-0.57607	0	0.2089	160.27	725.37	-18.944	-1.1044	0	0.28944	0	-6.1669	0	0	-2.5342	0
0.011254	-47.854	70.599	11.052	-0.5805	0	0.20598	160.73	725.1	-19.015	-1.1045	0	0.2893	0	-6.298	0	0	-2.5347	0
0.011671	-47.685	71.988	10.391	-0.58	0	0.20469	161.54	727.47	-19.136	-1.1043	0	0.28922	0	-6.1534	0	0	-2.4321	0
0.012088	-47.468	74.613	10.566	-0.57971	0	0.20285	162.03	727.81	-18.792	-1.1043	0	0.28931	0	-6.1659	0	0	-2.4494	0
0.012505	-49.166	79.373	11.071	-0.57884	0	0.20283	162.84	729.21	-18.841	-1.1043	0	0.28927	0	-6.549	0	0	-2.5235	0
0.012922	-52.016	85.112	12.19	-0.57932	0	0.20404	163.7	730.08	-18.701	-1.1041	0	0.28918	0	-6.8278	0	0	-2.4703	0
0.013339	-53.719	89.774	12.33	-0.57877	0	0.2035	164.3	730.85	-18.58	-1.1043	0	0.28938	0	-6.8357	0	0	-2.3902	0
0.013755	-54.485	94.074	12.255	-0.57843	0	0.20184	164.73	730.93	-18.718	-1.1042	0	0.28923	0	-7.0135	0	0	-2.3596	0
0.014172	-56.031	98.653	12.654	-0.57923	0	0.20214	165.41	731.37	-18.748	-1.1041	0	0.28919	0	-7.4446	0	0	-2.3813	0
0.014589	-57.603	101.73	13.085	-0.5825	0	0.20104	166.25	731.97	-18.493	-1.1041	0	0.28926	0	-7.6101	0	0	-2.4557	0
0.015006	-56.451	106.7	12.717	-0.58034	0	0.20179	166.82	733.63	-18.435	-1.1041	0	0.28917	0	-7.2075	0	0	-2.3713	0
0.015423	-54.033	112.44	12.678	-0.57933	0	0.20159	167.57	734.32	-18.536	-1.104	0	0.28926	0	-6.9617	0	0	-2.2825	0
0.01584	-51.398	116.69	12.427	-0.57951	0	0.20095	168.05	734.75	-18.365	-1.104	0	0.28923	0	-6.8818	0	0	-2.3352	0
0.016256	-49.595	121.64	11.581	-0.57887	0	0.20183	168.89	735.35	-18.396	-1.104	0	0.28914	0	-6.5268	0	0	-2.3659	0
0.016673	-46.688	125.69	10.233	-0.58011	0	0.20173	169.66	736.22	-18.452	-1.1039	0	0.28928	0	-5.7878	0	0	-2.3032	0
0.01709	-42.297	130.68	8.4258	-0.5789	0	0.20115	170.1	736.64	-18.306	-1.1041	0	0.28927	0	-5.1789	0	0	-2.2415	0
0.017507	-38.115	136.57	7.9025	-0.57877	0	0.20146	170.77	738.06	-18.401	-1.1038	0	0.2891	0	-4.9458	0	0	-2.2453	0
0.017924	-35.306	142.74	7.64	-0.57869	0	0.20261	171.64	738.92	-17.907	-1.1038	0	0.28919	0	-4.5428	0	0	-2.2932	0
0.018341	-31.72	147.92	6.809	-0.57807	0	0.20108	171.99	739.09	-17.867	-1.1039	0	0.28903	0	-3.7776	0	0	-2.2627	0
0.018757	-27.152	153.7	5.8728	-0.5785	0	0.20144	172.62	739.34	-18.012	-1.1038	0	0.28902	0	-3.0951	0	0	-2.1567	0
0.019174	-22.339	158.79	5.0374	-0.57811	0	0.20132	173.26	739.5	-17.935	-1.1037	0	0.28921	0	-2.792	0	0	-2.1428	0
0.019591	-18.751	163.1	4.2471	-0.5789	0	0.20083	173.96	740.2	-17.939	-1.1037	0	0.28899	0	-2.4109	0	0	-2.2178	0
0.020008	-15.052	168.47	3.4622	-0.57823	0	0.2016	174.91	740.97	-17.867	-1.1036	0	0.28908	0	-1.6414	0	0	-2.1642	0
0.020425	-10.787	173.03	2.791	-0.57863	0	0.20119	175.24	741.84	-17.5	-1.1037	0	0.28915	0	-1.0552	0	0	-2.1021	0
0.020841	-6.2097	178.39	2.481	-0.57752	0	0.20163	175.75	742.02	-17.639	-1.1035	0	0.28901	0	-0.77861	0	0	-2.0757	0
0.021258	-3.2037	183.43	2.3083	-0.57708	0	0.20154	176.63	743.15	-17.299	-1.1036	0	0.28907	0	-0.51978	0	0	-2.0839	0
0.021675	-1.2914	187.41	2.061	-0.57721	0	0.20133	177.33	743.93	-17.286	-1.1035	0	0.28903	0	0.039563	0	0	-2.0835	0
0.022092	1.2963	191.04	1.4707	-0.57766	0	0.20122	177.99	743.91	-17.426	-1.1036	0	0.28902	0	0.41598	0	0	-2.0746	0
0.022509	3.3216	195.39	1.1387	-0.57728	0	0.20107	178.43	743.46	-17.196	-1.1034	0	0.28908	0	0.40434	0	0	-2.0173	0
0.022926	4.1029	198.96	0.85141	-0.57752	0	0.20106	179.07	744.34	-17.028	-1.1034	0	0.28903	0	0.48825	0	0	-2.0126	0
0.023342	4.4056	202.45	1.0163	-0.57771	0	0.20091	179.88	745.82	-16.902	-1.1035	0	0.28888	0	0.73311	0	0	-2.0739	0
0.023759	4.8849	206.74	0.98886	-0.57689	0	0.20129	180.54	745.36	-16.804	-1.1034	0	0.28904	0	0.87808	0	0	-2.0473	0
0.024176	5.1656	210.23	0.71191	-0.57693	0	0.20096	180.72	745.18	-16.725	-1.1034	0	0.289	0	0.74829	0	0	-1.9197	0
0.024593	4.6231	214.28	1.1598	-0.57635	0	0.20085	181.44	746.49	-16.8	-1.1032	0	0.28905	0	0.5614	0	0	-1.9143	0
0.02501	2.9906	216.93	1.867	-0.57632	0	0.20099	182.1	746.3	-16.608	-1.1034	0	0.28902	0	0.53084	0	0	-1.985	0
0.025427	1.3761	219.49	1.947	-0.57635	0	0.20065	182.59	746.47	-16.355	-1.1033	0	0.28903	0	0.36553	0	0	-1.9321	0
